<?xml version="1.0" encoding="utf-8"?>
<!-- Generator: Adobe Illustrator 17.0.0, SVG Export Plug-In . SVG Version: 6.00 Build 0)  -->
<!DOCTYPE svg PUBLIC "-//W3C//DTD SVG 1.1//EN" "http://www.w3.org/Graphics/SVG/1.1/DTD/svg11.dtd">
<svg version="1.1" id="Layer_1" xmlns="http://www.w3.org/2000/svg" xmlns:xlink="http://www.w3.org/1999/xlink" x="0px" y="0px"
	 width="217.404px" height="179.739px" viewBox="0 0 217.404 179.739" enable-background="new 0 0 217.404 179.739"
	 xml:space="preserve">
<g>
	<defs>
		<rect id="SVGID_1_" width="217.404" height="179.739"/>
	</defs>
	<clipPath id="SVGID_2_">
		<use xlink:href="#SVGID_1_"  overflow="visible"/>
	</clipPath>
	<path clip-path="url(#SVGID_2_)" fill="#C1BDB9" d="M217.044,97.945c1.281-9.979-0.822-18.705-6.749-26.752
		c-6.509-8.835-15.141-16.293-24.079-22.569c-13.467-9.452-33.228-18.584-49.082-9.487c-3.162,1.815-0.757,6.889,2.486,5.127
		c20.776-11.288,47.278,10.101,60.708,24.401c7.73,8.23,11.846,15.972,10.978,27.523c-0.983,13.092-6.72,25.911-12.857,37.322
		c-5.465,10.159-12.183,20.132-21.182,27.471c-13.291,10.842-31.243,15.195-48.056,16.243c-34.603,2.156-68.508-11.653-95.262-32.89
		c-12.695-10.075-22.134-23.147-26.858-38.673C3.307,93.225,3.509,79.857,4.996,67.077c1.82-15.655,6.516-30.298,17.336-42.082
		C32.248,14.197,45.521,6.027,60.446,5.863c12.473-0.139,24.787,4.388,35.992,9.456c11.333,5.128,21.398,11.553,29.245,21.342
		c6.841,8.534,11.084,19.316,11.195,30.284c0.118,11.591-5.818,21.192-13.46,29.354c-7.226-7.273-12.029-19.826-12.097-29.228
		c-0.004-0.442-0.421-0.637-0.738-0.537c-1.75-10.613-5.702-21.125-16.171-25.916c-9.718-4.448-20.632-4.609-29.554,1.75
		C50.329,52.725,44.42,77.649,60.237,89.742c1.367,1.046,2.649-0.901,1.827-2.101c-8.829-12.906-7.384-28.825,4.709-39.283
		c7.033-6.082,15.677-5.855,24.145-3.449c5.625,1.598,9.247,4.872,11.903,8.974c-7.97,0.473-12.398,10.402-14.427,17.026
		c-1.543,5.042-2.089,10.576-1.621,15.983c-6.133,7.629-17.469,3.451-25.809,4.006c-8.141,0.54-14.41,5.81-14.773,14.341
		c-0.387,9.077,10.756,15.543,18.372,16.938c12.116,2.221,24.378-2.33,33.289-10.563c0.064-0.06,0.097-0.125,0.139-0.189
		c4.997,5.462,11.27,10.127,17.872,13.734c-3.887,0.524-7.748,1.417-11.816,1.247c-6.767-0.283-13.459-2.462-19.252-5.912
		c-1.143-0.681-2.111,0.878-1.115,1.695c5.369,4.407,11.644,6.533,18.48,7.411c5.523,0.709,13.287,0.772,18.362-2.093
		c3.86,1.783,7.757,3.197,11.512,4.182c5.852,1.538,12.733,1.289,17.739-2.516c4.856-3.691,6.287-10.182,2.144-15.185
		c-0.58-0.702-1.209-1.337-1.856-1.944c4.759-1.282,9.258-6.962,11.891-10.282c4.197-5.292,6.637-11.788,5.783-18.554
		c-1.472-11.656-15.995-20.821-26.57-15.072c0.348-9.552-2.211-19.508-6.967-28.113C121.669,17.35,93.93,4.561,69.274,0.648
		C37.515-4.389,12.903,20.669,4.35,49.223c-8.262,27.579-5.231,60.804,13.21,83.603c11.33,14.008,26.717,23.257,42.665,31.13
		c13.41,6.62,27.036,11.541,41.825,14.022c27.93,4.689,60.78,0.485,83.079-18.339C202.253,145.184,214.229,119.871,217.044,97.945
		 M96.744,110.353c-9.091,6.936-20.059,10.551-31.439,8.037c-9.453-2.087-21.571-12.878-10.848-21.737
		c8.804-7.274,25.3,3.346,32.697-6.665c0.475,2.939,1.258,5.805,2.359,8.491c1.726,4.208,4.292,8.155,7.42,11.78
		C96.869,110.288,96.805,110.306,96.744,110.353 M148.52,114.92c8.689,8.579-4.322,14.681-11.684,13.866
		c-15.053-1.666-30.281-13.058-39.251-24.683c-5.627-7.298-7.094-15.737-6.4-24.772c0.411-5.35,2.066-10.519,4.76-15.137
		c2.027-3.48,5.454-5.541,7.887-8.632c2.298,4.105,3.841,8.859,5.486,13.562c0.146,0.419,0.498,0.526,0.834,0.451
		c0.058,10.184,4.557,21.211,11.671,28.774c-0.064,0.729,0.506,1.472,1.253,1.274c1.025,0.989,2.088,1.921,3.205,2.755
		C133.158,107.517,142.286,108.764,148.52,114.92 M141.48,69.866c10.282-3.25,22.64,4.927,22.903,15.972
		c0.138,5.776-3.042,10.877-6.498,15.233c-2.926,3.69-7.38,5.571-10.479,8.811c-6.338-4.477-14.498-6.325-20.833-10.87
		c-0.372-0.266-0.732-0.569-1.094-0.863c9.961-6.894,14.771-17.238,15.59-28.271C141.191,69.908,141.324,69.915,141.48,69.866"/>
	<path clip-path="url(#SVGID_2_)" fill="#C1BDB9" d="M38.227,61.531c-2.639-3.006-6.216,0.133-3.578,3.14
		C35.969,66.174,39.547,63.033,38.227,61.531"/>
	<path clip-path="url(#SVGID_2_)" fill="#C1BDB9" d="M28.917,69.703c-1.979-2.254-5.703,1.015-3.724,3.269
		C27.831,75.978,31.556,72.709,28.917,69.703"/>
	<path clip-path="url(#SVGID_2_)" fill="#C1BDB9" d="M35.688,93.032c-1.319-1.503-4.574,1.354-3.255,2.856
		C35.072,98.895,38.327,96.038,35.688,93.032"/>
	<path clip-path="url(#SVGID_2_)" fill="#C1BDB9" d="M48.396,118.265c-0.099-0.501-0.326-0.999-0.709-1.351
		c-0.766-0.703-1.896-0.991-2.781-0.35c-0.449,0.168-0.826,0.496-1.074,0.91c-0.359,0.6-0.149,1.424,0.369,1.816
		c0.08,0.157,0.178,0.301,0.303,0.419c0.396,0.375,0.753,0.692,1.291,0.839C47.22,120.937,48.696,119.805,48.396,118.265"/>
	<path clip-path="url(#SVGID_2_)" fill="#C1BDB9" d="M48.271,129.75c-0.222-0.875-0.787-1.558-1.292-2.287
		c-0.65-0.937-2.164-0.879-2.946-0.192c-0.782,0.686-1.036,2.18-0.193,2.946c0.659,0.595,1.262,1.244,2.102,1.578
		C47.163,132.28,48.594,131.025,48.271,129.75"/>
	<path clip-path="url(#SVGID_2_)" fill="#C1BDB9" d="M86.338,139.054c-2.639-3.006-6.216,0.135-3.578,3.14
		C84.08,143.698,87.657,140.557,86.338,139.054"/>
	<path clip-path="url(#SVGID_2_)" fill="#C1BDB9" d="M70.905,144.616c-2.638-3.006-7.037,0.855-4.397,3.861
		C68.486,150.732,72.885,146.871,70.905,144.616"/>
	<path clip-path="url(#SVGID_2_)" fill="#C1BDB9" d="M95.349,151.104c-2.639-3.007-6.949,0.777-4.31,3.783
		C93.677,157.893,97.988,154.109,95.349,151.104"/>
	<path clip-path="url(#SVGID_2_)" fill="#C1BDB9" d="M123.243,155.891c-1.979-2.254-5.526,0.859-3.547,3.114
		C121.675,161.26,125.223,158.146,123.243,155.891"/>
	<path clip-path="url(#SVGID_2_)" fill="#C1BDB9" d="M133.576,146.47c0.148-0.447,0.275-1.248,0.035-1.706
		c-0.624-1.196-1.664-2.065-3.104-1.789c-1.707,0.33-2.668,2.255-1.909,3.818c0.641,1.32,2.277,1.89,3.599,1.249
		C132.844,147.728,133.348,147.154,133.576,146.47"/>
	<path clip-path="url(#SVGID_2_)" fill="#C1BDB9" d="M157.721,148.248c-2.639-3.006-6.423,0.314-3.784,3.32
		C155.916,153.823,159.699,150.503,157.721,148.248"/>
	<path clip-path="url(#SVGID_2_)" fill="#C1BDB9" d="M171.068,137.863c-2.639-3.007-6.773,0.623-4.135,3.629
		C169.572,144.498,173.707,140.869,171.068,137.863"/>
	<path clip-path="url(#SVGID_2_)" fill="#C1BDB9" d="M173.624,115.66c-2.638-3.007-6.656,0.52-4.017,3.525
		C170.927,120.688,174.944,117.163,173.624,115.66"/>
	<path clip-path="url(#SVGID_2_)" fill="#C1BDB9" d="M143.333,160.878c-2.638-3.007-6.421,0.314-3.782,3.32
		C141.529,166.453,145.311,163.133,143.333,160.878"/>
	<path clip-path="url(#SVGID_2_)" fill="#C1BDB9" d="M113.607,140.399c-1.979-2.255-4.999,0.396-3.02,2.651
		C111.906,144.553,114.926,141.902,113.607,140.399"/>
	<path clip-path="url(#SVGID_2_)" fill="#C1BDB9" d="M28.392,112.743c-1.319-1.503-4.311,1.122-2.991,2.625
		C27.38,117.623,30.371,114.997,28.392,112.743"/>
	<path clip-path="url(#SVGID_2_)" fill="#C1BDB9" d="M16.177,64.516c-8.3,8.353-13.954,19.007-14.946,30.876
		C1.122,96.688,3.27,96.98,3.502,95.7c2.054-11.349,5.77-21.674,13.095-30.764C16.832,64.644,16.453,64.238,16.177,64.516"/>
	<path clip-path="url(#SVGID_2_)" fill="#C1BDB9" d="M17.856,82.196c-7.13,8.504-10.95,18.712-10.532,29.864
		c0.052,1.376,2.042,1.362,2.125,0c0.664-11.003,3.25-19.844,9.585-28.955C19.519,82.407,18.402,81.544,17.856,82.196"/>
	<path clip-path="url(#SVGID_2_)" fill="#C1BDB9" d="M21.329,101.831c-4.649,7.55-8.541,20.402-2.106,28.059
		c0.441,0.524,1.435-0.035,1.175-0.684c-3.763-9.403-2.279-17.822,1.713-26.918C22.341,101.765,21.643,101.321,21.329,101.831"/>
	<path clip-path="url(#SVGID_2_)" fill="#C1BDB9" d="M38.341,149.03c-6.076-8.08-5.849-17.339-6.121-26.971
		c-0.018-0.645-0.978-0.644-1,0c-0.335,9.816-0.443,19.803,5.992,27.841C37.72,150.536,38.831,149.68,38.341,149.03"/>
	<path clip-path="url(#SVGID_2_)" fill="#C1BDB9" d="M20.333,49.863c-8.026,2.853-15.139,9.255-18.228,17.268
		c-0.402,1.042,1.313,1.754,1.799,0.758c1.742-3.57,3.629-6.757,6.341-9.7c2.951-3.203,6.692-5.5,10.245-7.955
		C20.667,50.111,20.562,49.781,20.333,49.863"/>
	<path clip-path="url(#SVGID_2_)" fill="#C1BDB9" d="M28.312,32.455c-7.927,1.773-19.207,6.707-21.601,15.326
		c-0.312,1.121,1.384,1.893,1.913,0.806c4.107-8.436,12.067-11.483,19.905-15.618C28.821,32.814,28.613,32.387,28.312,32.455"/>
	<path clip-path="url(#SVGID_2_)" fill="#C1BDB9" d="M104.818,81.14c-2.269-3.15-3.711-6.313-4.788-10.048
		c-1.099-3.814,0.099-7.629-0.754-11.278c-0.155-0.659-1.082-0.914-1.541-0.407c-2.522,2.782-1.527,7.924-0.805,11.276
		c0.924,4.287,3.465,8.746,7.204,11.141C104.541,82.085,105.115,81.552,104.818,81.14"/>
	<path clip-path="url(#SVGID_2_)" fill="#C1BDB9" d="M104.067,98.132c-2.61-1.476-5.104-2.804-7.442-4.729
		c-2.337-1.923-4.006-4.26-5.799-6.657c-0.984-1.316-2.923-0.222-2.213,1.293c2.385,5.09,9.262,11.169,15.107,11.374
		C104.408,99.438,104.653,98.464,104.067,98.132"/>
	<path clip-path="url(#SVGID_2_)" fill="#C1BDB9" d="M117.72,110.366c-5.237,0.632-9.985,0.034-14.939-1.738
		c-1.577-0.565-2.677,2.023-1.144,2.713c5.022,2.261,11.577,3.032,16.264-0.305C118.157,110.853,118.112,110.319,117.72,110.366"/>
	<path clip-path="url(#SVGID_2_)" fill="#C1BDB9" d="M133.55,118.774c-6.846,0.927-13.238,2.327-20.056,0.354
		c-2.059-0.596-2.954,2.703-0.88,3.194c7.182,1.705,14.741,0.699,21.43-2.377C134.767,119.613,134.199,118.687,133.55,118.774"/>
	<path clip-path="url(#SVGID_2_)" fill="#C1BDB9" d="M189.54,102.906c-0.544-0.538-1.525,0.171-1.08,0.833
		c8.459,12.59,6.871,25.44,5.297,39.653c-0.166,1.501,2.144,1.696,2.547,0.345C200.116,130.974,199.511,112.771,189.54,102.906"/>
	<path clip-path="url(#SVGID_2_)" fill="#C1BDB9" d="M205.629,106.543c-1.802-6.227-5.326-11.931-10.079-16.314
		c-0.675-0.623-1.57,0.305-0.994,0.994c3.613,4.316,6.108,9.309,7.896,14.626c0.914,2.717,1.403,5.561,1.656,8.408
		c0.254,2.861-0.496,5.651-0.195,8.469c0.114,1.074,1.504,1.625,2.125,0.576C208.811,118.615,207.047,111.442,205.629,106.543"/>
	<path clip-path="url(#SVGID_2_)" fill="#C1BDB9" d="M189.849,72.259c-0.507-0.101-0.901,0.646-0.374,0.886
		c12.733,5.781,21.246,15.791,21.151,30.248c-0.009,1.45,2.018,1.357,2.188,0C214.639,88.789,204.15,75.121,189.849,72.259"/>
	<path clip-path="url(#SVGID_2_)" fill="#C1BDB9" d="M64.516,93.857c0.339-0.768-0.205-1.493-1.041-1.354
		c-3.139,0.522-4.746,4.093-5.123,6.937c-0.403,3.046,0.511,5.866,2.425,8.229c0.303,0.373,0.778-0.103,0.614-0.474
		c-1.061-2.404-0.889-4.894-0.248-7.377C61.738,97.515,63.586,95.962,64.516,93.857"/>
	<path clip-path="url(#SVGID_2_)" fill="#C1BDB9" d="M73.582,92.684c-3.154,1.677-4.192,6.26-3.617,9.54
		c0.268,1.531,0.712,3.412,1.754,4.629c1.114,1.302,1.789,1.346,3.334,1.426c0.211,0.01,0.309-0.316,0.111-0.407
		c-1.636-0.761-2.086-4.595-2.134-6.062c-0.086-2.656,0.306-4.924,2.483-6.623C76.996,94.03,75.109,91.872,73.582,92.684"/>
	<path clip-path="url(#SVGID_2_)" fill="#C1BDB9" d="M29.041,141.012c-2.965-6.137-2.4-12.373-2.891-18.95
		c-0.042-0.556-0.812-0.552-0.859,0c-0.572,6.658-0.794,13.663,2.441,19.716C28.197,142.647,29.461,141.883,29.041,141.012"/>
	<path clip-path="url(#SVGID_2_)" fill="#C1BDB9" d="M16.205,96.621c-3.289,7.692-5.001,16.387-4.326,24.773
		c0.053,0.657,0.956,0.652,1.016,0c0.775-8.463,1.146-16.394,3.696-24.611C16.66,96.559,16.3,96.399,16.205,96.621"/>
	<path clip-path="url(#SVGID_2_)" d="M39.387,136.015v0.094V136.015z"/>
	<path clip-path="url(#SVGID_2_)" fill="#C1BDB9" d="M49.374,157.074c-5.215-6.344-8.208-13.802-9.846-21.811
		c-0.128-0.625-1.062-0.356-0.949,0.262c1.422,7.791,4.155,16.653,10.154,22.19C49.17,158.118,49.74,157.519,49.374,157.074"/>
	<path clip-path="url(#SVGID_2_)" fill="#C1BDB9" d="M60.68,161.102c-5.03-5.482-6.915-11.914-8.052-19.106
		c-0.044-0.281-0.504-0.212-0.491,0.066c0.321,7.128,2.132,14.963,7.957,19.626C60.504,162.016,61.049,161.503,60.68,161.102"/>
	<path clip-path="url(#SVGID_2_)" fill="#C1BDB9" d="M69.413,166.368c-3.105-3.794-3.74-8.214-3.984-12.974
		c-0.025-0.481-0.733-0.485-0.75,0c-0.164,4.722,0.412,10.252,4.016,13.693C69.178,167.548,69.821,166.866,69.413,166.368"/>
	<path clip-path="url(#SVGID_2_)" fill="#C1BDB9" d="M86.696,173.085c-3.188-3.942-6.157-8.085-7.183-13.15
		c-0.124-0.614-1.004-0.338-0.919,0.254c0.73,5.093,3.598,10.16,7.483,13.515C86.51,174.078,87.048,173.521,86.696,173.085"/>
	<path clip-path="url(#SVGID_2_)" fill="#C1BDB9" d="M77.438,167.17c-2.324-3.176-3.73-6.491-3.986-10.442
		c-0.033-0.51-0.784-0.518-0.797,0c-0.105,4.192,1.451,7.782,4.084,10.981C77.059,168.099,77.736,167.577,77.438,167.17"/>
	<path clip-path="url(#SVGID_2_)" fill="#C1BDB9" d="M184.602,117.936c-0.189-0.25-0.595-0.036-0.432,0.252
		c3.041,5.377,2.569,12.704,2.199,18.648c-0.421,6.767-1.642,14.017-4.752,20.11c-0.519,1.017,0.954,1.895,1.538,0.898
		c3.385-5.779,4.196-13.175,4.751-19.723C188.449,131.712,188.715,123.354,184.602,117.936"/>
	<path clip-path="url(#SVGID_2_)" fill="#C1BDB9" d="M179.815,136.565c-0.157-0.107-0.354,0.102-0.257,0.257
		c2.357,3.779,0.088,10.577-0.927,14.412c-1.314,4.964-3.954,9.229-5.619,13.965c-0.268,0.762,0.714,1.134,1.228,0.715
		c3.975-3.252,5.463-11.859,6.528-16.525C181.557,145.937,183.388,139.003,179.815,136.565"/>
	<path clip-path="url(#SVGID_2_)" fill="#C1BDB9" d="M196.667,81.582c-0.639-0.304-1.176,0.578-0.56,0.958
		c10.658,6.561,11.559,17.603,12.801,28.854c0.115,1.037,1.529,1.054,1.625,0C211.531,100.409,207.167,86.585,196.667,81.582"/>
	<path clip-path="url(#SVGID_2_)" fill="#C1BDB9" d="M53.855,100.978c-0.268-2.126,0.033-4.147,0.31-6.25
		c0.058-0.436-0.65-0.613-0.83-0.225c-1.739,3.754-0.378,8.559,0.75,12.308c0.098,0.325,0.655,0.278,0.614-0.083
		C54.477,104.802,54.097,102.902,53.855,100.978"/>
	<path clip-path="url(#SVGID_2_)" fill="#C1BDB9" d="M67.363,92.519c-2.061,3.082-1.966,8.33-0.498,11.653
		c0.107,0.243,0.44,0.058,0.4-0.169c-0.648-3.675-0.678-7.592,0.813-11.066C68.285,92.455,67.666,92.065,67.363,92.519"/>
	<path clip-path="url(#SVGID_2_)" fill="#C1BDB9" d="M83.411,103.186c-2.388-3.388-2.647-7.165-1.133-10.971
		c0.259-0.65-0.705-0.939-1.057-0.445c-2.414,3.39-1.639,9.241,1.54,11.918C83.097,103.971,83.7,103.595,83.411,103.186"/>
	<path clip-path="url(#SVGID_2_)" fill="#C1BDB9" d="M100.832,84.632c-4.184-3.051-7.918-6.13-9.153-11.41
		c-0.165-0.706-1.329-0.563-1.274,0.172c0.426,5.663,4.478,10.427,9.535,12.763C100.981,86.636,101.752,85.303,100.832,84.632"/>
	<path clip-path="url(#SVGID_2_)" fill="#C1BDB9" d="M107.054,106.785c-3.299-0.163-6.917,0.499-9.718-1.673
		c-0.396-0.306-0.924,0.178-0.564,0.565c2.719,2.915,6.631,2.575,10.282,2.327C107.835,107.951,107.843,106.824,107.054,106.785"/>
	<path clip-path="url(#SVGID_2_)" fill="#C1BDB9" d="M122.091,114.222c-3.506,1.537-6.428,2.96-10.371,2.806
		c-0.414-0.017-0.5,0.625-0.097,0.721c3.858,0.919,7.915-0.133,11.06-2.515C123.286,114.777,122.788,113.916,122.091,114.222"/>
	<path clip-path="url(#SVGID_2_)" fill="#C1BDB9" d="M138.667,123.675c-2.455,2.392-5.505,3.872-8.947,4.058
		c-0.42,0.023-0.426,0.653,0,0.657c3.754,0.036,7.007-1.381,9.72-3.942C139.954,123.964,139.172,123.182,138.667,123.675"/>
</g>
</svg>
