<?xml version="1.0" encoding="utf-8"?>
<svg xmlns="http://www.w3.org/2000/svg"
	xmlns:xlink="http://www.w3.org/1999/xlink"
	width="14px" height="16px" viewBox="0 0 14 16">
<path fillRule="evenodd" d="M 11.5 16C 11.5 16 2.5 16 2.5 16 1.12 16-0 14.88-0 13.5-0 13.5-0 2.5-0 2.5-0 1.12 1.12-0 2.5-0 2.5-0 11.5-0 11.5-0 12.88-0 14 1.12 14 2.5 14 2.5 14 13.5 14 13.5 14 14.88 12.88 16 11.5 16ZM 7 4C 4.79 4 3 5.79 3 8 3 10.21 4.79 12 7 12 9.21 12 11 10.21 11 8 11 5.79 9.21 4 7 4ZM 12 2C 12 2 10 2 10 2 10 2 10 4 10 4 10 4 12 4 12 4 12 4 12 2 12 2ZM 13 9C 13 9 13 9 13 9 13 9 13 9 13 9 13 9 13 7 13 7 13 7 12 7 12 7 12 7 12 7.28 12 7.28 11.98 7.27 11.97 7.26 11.95 7.25 11.96 7.42 12 7.58 12 7.75 12 10.65 9.76 13 7 13 4.24 13 2 10.65 2 7.75 2 7.58 2.03 7.42 2.05 7.25 2.03 7.26 2.02 7.27 2 7.28 2 7.28 2 7 2 7 2 7 1 7 1 7 1 7 1 9 1 9 1 9 1 9 1 9 1 9 1 9 1 9 1 9 1 13 1 13 1 14.1 1.9 15 3 15 3 15 11 15 11 15 12.1 15 13 14.1 13 13 13 13 13 9 13 9Z" fill="rgb(238,235,227)"/></svg>