<?xml version="1.0" encoding="utf-8"?>
<!-- Generator: Adobe Illustrator 17.0.0, SVG Export Plug-In . SVG Version: 6.00 Build 0)  -->
<!DOCTYPE svg PUBLIC "-//W3C//DTD SVG 1.1//EN" "http://www.w3.org/Graphics/SVG/1.1/DTD/svg11.dtd">
<svg version="1.1" id="Layer_1" xmlns="http://www.w3.org/2000/svg" xmlns:xlink="http://www.w3.org/1999/xlink" x="0px" y="0px"
	 width="410.066px" height="120px" viewBox="0 0 410.066 120" enable-background="new 0 0 410.066 120" xml:space="preserve">
<g>
	<defs>
		<rect id="SVGID_1_" x="0" y="0" width="223.645" height="120"/>
	</defs>
	<clipPath id="SVGID_2_">
		<use xlink:href="#SVGID_1_"  overflow="visible"/>
	</clipPath>
	<path clip-path="url(#SVGID_2_)" fill="#7F818F" d="M14.507,50.497c2.65,4.664,5.36,6.553,9.26,7.912
		c3.898,1.359,10.596-0.619,10.596-0.619c-3.647-4.471-6.835-6.513-12.34-6.827C19.15,50.798,17.324,52.143,14.507,50.497"/>
	<path clip-path="url(#SVGID_2_)" fill="#7F818F" d="M24.955,60.607c2.971,1.313,4.629-0.226,7.491-0.385
		c5.486-0.305,8.86,1.36,12.952,5.401c0,0-6.432,2.702-10.44,1.788C30.951,66.496,28.069,64.924,24.955,60.607"/>
	<path clip-path="url(#SVGID_2_)" fill="#7F818F" d="M12.601,40.529c5.464,0.95,8.432,3.364,11.591,8.226
		c0,0-6.89,1.215-10.637-0.588c-3.748-1.803-6.252-4.002-8.407-8.979C7.773,41.163,9.75,40.033,12.601,40.529"/>
	<path clip-path="url(#SVGID_2_)" fill="#7F818F" d="M48.632,76.995c3.173,0.628,4.456-1.232,7.204-2.008
		c5.28-1.49,8.923-0.59,13.775,2.475c0,0-5.701,4.023-9.8,3.996C55.711,81.431,52.57,80.522,48.632,76.995"/>
	<path clip-path="url(#SVGID_2_)" fill="#7F818F" d="M15.255,38.603c0,0-5.789,0.374-8.73-1.419
		c-2.941-1.794-4.824-3.789-6.256-8.045C6.127,33.735,11.041,29.747,15.255,38.603"/>
	<path clip-path="url(#SVGID_2_)" fill="#7F818F" d="M47.014,75.113c-4.075-0.47-7.102-1.716-10.645-5.654
		c3.09,0.972,4.567-0.738,7.387-1.21c5.41-0.907,8.935,0.378,13.429,3.949C57.184,72.198,51.087,75.583,47.014,75.113"/>
	<path clip-path="url(#SVGID_2_)" fill="#7F818F" d="M57.468,60.615c4.465,1.029,6.58,2.544,8.983,5.313
		c2.401,2.77,3.92,9.417,3.92,9.417C58.296,73.9,62.817,67.192,57.468,60.615"/>
	<path clip-path="url(#SVGID_2_)" fill="#7F818F" d="M46.594,63.721c-11.504-4.024-5.64-9.617-9.489-17.199
		c4.163,1.99,5.91,3.929,7.67,7.155C46.534,56.904,46.594,63.721,46.594,63.721"/>
	<path clip-path="url(#SVGID_2_)" fill="#7F818F" d="M55.289,60.395c2.089,3.013,2.876,9.783,2.876,9.783
		c-11.85-2.744-6.622-8.932-11.245-16.044C51.259,55.647,53.199,57.381,55.289,60.395"/>
	<path clip-path="url(#SVGID_2_)" fill="#7F818F" d="M28.12,37.828c3.944,2.46,5.482,4.588,6.894,7.998
		c1.41,3.411,0.742,10.202,0.742,10.202C24.723,50.757,31.161,45.806,28.12,37.828"/>
	<path clip-path="url(#SVGID_2_)" fill="#7F818F" d="M13.359,21.021c2.886,2.751,3.828,4.815,4.438,7.895
		c0.61,3.079-1.099,8.512-1.099,8.512C8.721,31.309,14.39,28.094,13.359,21.021"/>
	<path clip-path="url(#SVGID_2_)" fill="#7F818F" d="M20.072,28.102c3.677,2.923,4.987,5.226,6.035,8.793
		c1.048,3.566-0.339,10.261-0.339,10.261C15.335,40.656,22.268,36.42,20.072,28.102"/>
	<path clip-path="url(#SVGID_2_)" fill="#7F818F" d="M5.751,28.669c-4.709-2.735-4.768-5.993-4.989-10.779
		C0.657,15.611,0,12.408,0,12.408s2.691,2.822,3.864,3.777c3.64,2.966,6.197,4.165,6.626,9.416c0.245,3.008-0.45,4.428-0.45,4.428
		S8.45,30.236,5.751,28.669"/>
	<path clip-path="url(#SVGID_2_)" fill="#7F818F" d="M54.958,99.118c0,0-4.457,3.41-7.77,3.512
		c-3.315,0.103-5.886-0.536-9.209-3.271C45.06,100.059,46.978,94.257,54.958,99.118"/>
	<path clip-path="url(#SVGID_2_)" fill="#7F818F" d="M65.478,101.82c0,0-4.052,3.876-7.32,4.342
		c-3.269,0.467-5.879,0.117-9.45-2.225C55.8,103.834,57.038,97.854,65.478,101.82"/>
	<path clip-path="url(#SVGID_2_)" fill="#7F818F" d="M44.745,95.264c0,0-4.821,2.896-8.149,2.621
		c-3.326-0.275-5.833-1.205-8.873-4.319C34.71,95.093,37.307,89.554,44.745,95.264"/>
	<path clip-path="url(#SVGID_2_)" fill="#7F818F" d="M87.03,103.735c0,0-3.125,4.658-6.209,5.817
		c-3.085,1.159-5.701,1.381-9.663-0.132C78.044,107.768,77.943,101.669,87.03,103.735"/>
	<path clip-path="url(#SVGID_2_)" fill="#7F818F" d="M35.137,90.221c0,0-4.237,1.946-6.955,1.447
		c-2.721-0.499-4.703-1.455-6.995-4.236C26.948,88.828,29.66,84.757,35.137,90.221"/>
	<path clip-path="url(#SVGID_2_)" fill="#7F818F" d="M76.202,103.362c0,0-3.606,4.293-6.797,5.113
		c-3.191,0.82-5.818,0.756-9.602-1.179C66.828,106.405,67.393,100.328,76.202,103.362"/>
	<path clip-path="url(#SVGID_2_)" fill="#7F818F" d="M81.36,95.993c2.593,1.386,5.635,5.937,5.635,5.937
		c-9.243,2.464-8.233-3.75-13.895-7.34C76.744,94.078,78.764,94.606,81.36,95.993"/>
	<path clip-path="url(#SVGID_2_)" fill="#7F818F" d="M53.793,89.873c3.693,0.295,5.558,1.249,7.801,3.163
		c2.244,1.915,4.237,7.013,4.237,7.013C56.261,100.464,58.578,94.596,53.793,89.873"/>
	<path clip-path="url(#SVGID_2_)" fill="#7F818F" d="M63.335,92.761c3.686-0.112,5.639,0.631,8.069,2.29
		c2.429,1.659,4.957,6.512,4.957,6.512C66.912,103.017,68.577,96.938,63.335,92.761"/>
	<path clip-path="url(#SVGID_2_)" fill="#7F818F" d="M44.567,85.937c3.664,0.712,5.426,1.864,7.46,4.017
		c2.034,2.153,3.475,7.441,3.475,7.441C45.911,96.76,48.846,91.161,44.567,85.937"/>
	<path clip-path="url(#SVGID_2_)" fill="#7F818F" d="M28.687,77.575c2.95,1.234,4.247,2.512,5.586,4.646
		c1.339,2.136,1.611,6.703,1.611,6.703C28.376,86.846,31.092,82.633,28.687,77.575"/>
	<path clip-path="url(#SVGID_2_)" fill="#7F818F" d="M35.748,80.956c3.595,1.135,5.237,2.486,7.043,4.859
		c1.806,2.375,2.68,7.796,2.68,7.796C35.96,91.9,39.483,86.647,35.748,80.956"/>
	<path clip-path="url(#SVGID_2_)" fill="#7F818F" d="M27.842,81.839c1.045,2.185,0.931,3.451,0.931,3.451s-1.134,0.611-3.606,0.212
		c-4.316-0.697-5.292-3.123-6.828-6.651c-0.731-1.679-2.14-3.894-2.14-3.894s2.827,1.342,3.98,1.721
		C23.758,77.858,26.02,78.023,27.842,81.839"/>
	<path clip-path="url(#SVGID_2_)" fill="#7F818F" d="M82.666,110.304c4.136-0.969,3.806-5.87,8.624-7.619
		c-5.068-1.097-4.757-6.186-8.294-7.334c3.568-0.904,5.638-0.598,8.373,0.498c1.972,0.791,4.578,3.649,5.947,5.159
		c10.9-1.458,20.823-4.237,30.455-8.513c-1.409,0.198-2.805,0.371-4.181,0.511c-2.549,0.26-5.037,0.43-7.445,0.516
		c-2.409,0.079-4.736,0.044-6.965-0.022c-2.231-0.084-4.363-0.212-6.383-0.411c-2.021-0.196-3.929-0.447-5.715-0.708
		c-3.575-0.522-6.653-1.182-9.17-1.767c-1.258-0.297-2.38-0.566-3.347-0.84c-0.97-0.26-1.793-0.482-2.454-0.683
		c-1.324-0.395-2.03-0.605-2.03-0.605s0.726,0.132,2.085,0.381c0.677,0.134,1.518,0.273,2.504,0.434
		c0.984,0.168,2.119,0.34,3.39,0.529c2.544,0.364,5.638,0.745,9.194,1.03c1.778,0.13,3.67,0.246,5.667,0.298
		c1.994,0.069,4.09,0.089,6.276,0.048c2.184-0.057,4.456-0.148,6.801-0.355c2.344-0.187,4.76-0.443,7.231-0.797
		c2.472-0.351,4.997-0.807,7.562-1.351c2.566-0.538,5.176-1.145,7.814-1.85c0.154-0.041,0.309-0.086,0.462-0.127
		c0.159-0.092,0.318-0.179,0.477-0.272c-0.131,0.085-0.262,0.165-0.393,0.249c5.096-1.379,10.319-3.063,15.607-4.807
		c5.532-1.824,11.26-3.55,17.129-4.746c5.869-1.179,11.88-1.932,17.878-1.765c2.995,0.094,5.981,0.451,8.883,1.139
		c2.9,0.678,5.714,1.722,8.278,3.167c2.58,1.418,4.831,3.337,6.693,5.465c0.918,1.078,1.74,2.211,2.468,3.379
		c0.702,1.18,1.346,2.372,1.864,3.595c0.278,0.604,0.494,1.225,0.737,1.83c0.201,0.624,0.418,1.218,0.597,1.853
		c0.372,1.336,0.531,2.628,0.566,3.913c0.061,2.559-0.401,4.989-1.178,7.184c-1.555,4.412-4.501,7.777-7.614,9.799
		c-1.555,1.029-3.156,1.736-4.67,2.224c-1.518,0.486-2.952,0.759-4.251,0.907c-2.602,0.298-4.648,0.113-6.022-0.022
		c-0.689-0.078-1.213-0.156-1.565-0.216c-0.352-0.059-0.533-0.089-0.533-0.089s0.183,0.012,0.539,0.035
		c0.356,0.027,0.884,0.048,1.572,0.066c1.372,0.024,3.404,0.005,5.902-0.475c2.485-0.463,5.463-1.48,8.242-3.558
		c1.385-1.033,2.694-2.345,3.803-3.917c1.108-1.572,2.014-3.402,2.622-5.411c0.605-2.004,0.905-4.201,0.744-6.414
		c-0.08-1.098-0.283-2.224-0.623-3.248c-0.181-0.544-0.426-1.104-0.636-1.66c-0.247-0.545-0.466-1.107-0.741-1.644
		c-0.515-1.094-1.14-2.142-1.808-3.171c-0.692-1.013-1.459-1.984-2.303-2.899c-1.708-1.809-3.739-3.359-6.022-4.564
		c-4.568-2.443-10.062-3.417-15.637-3.493c-5.599-0.113-11.342,0.643-16.996,1.828c-5.665,1.181-11.261,2.76-16.745,4.536
		c-1.367,0.435-2.757,0.895-4.145,1.32c-1.376,0.428-2.755,0.829-4.13,1.222c-2.75,0.786-5.484,1.525-8.199,2.175
		c-2.713,0.649-5.4,1.229-8.053,1.688c-0.571,0.097-1.139,0.189-1.706,0.277c-10.031,5.237-20.432,8.776-31.99,10.911
		c-1.004,1.79-3.269,5.191-5.41,6.271C89.35,110.877,86.769,111.38,82.666,110.304"/>
	<path clip-path="url(#SVGID_2_)" fill="#7F818F" d="M64.097,42.289c0,0-5.603,0.164-8.356-1.69
		c-2.751-1.854-4.472-3.877-5.581-8.041C55.506,37.268,60.434,33.674,64.097,42.289"/>
	<path clip-path="url(#SVGID_2_)" fill="#7F818F" d="M71.072,50.633c0,0-5.546,0.782-8.472-0.75
		c-2.926-1.531-4.846-3.342-6.384-7.333C62.038,46.611,66.523,42.477,71.072,50.633"/>
	<path clip-path="url(#SVGID_2_)" fill="#7F818F" d="M58.038,33.188c0,0-5.6-0.468-8.143-2.636
		c-2.542-2.168-4.039-4.388-4.699-8.694C49.987,27.183,55.314,24.2,58.038,33.188"/>
	<path clip-path="url(#SVGID_2_)" fill="#7F818F" d="M87.468,64.79c0,0-5.246,1.957-8.425,1.097
		c-3.179-0.86-5.435-2.211-7.775-5.757C77.823,62.815,81.283,57.799,87.468,64.79"/>
	<path clip-path="url(#SVGID_2_)" fill="#7F818F" d="M53.164,23.472c0,0-4.573-0.895-6.491-2.891c-1.92-1.996-2.976-3.93-3.222-7.53
		C47.323,17.55,51.884,15.836,53.164,23.472"/>
	<path clip-path="url(#SVGID_2_)" fill="#7F818F" d="M63.279,51.765c6.223,3.385,10.216-1.226,15.607,6.392
		c0,0-5.423,1.379-8.491,0.179C67.325,57.136,65.228,55.549,63.279,51.765"/>
	<path clip-path="url(#SVGID_2_)" fill="#7F818F" d="M81.467,49.216c3.26,1.714,4.594,3.323,5.896,5.967
		c1.301,2.643,1.125,8.118,1.125,8.118C79.544,59.899,83.986,55.44,81.467,49.216"/>
	<path clip-path="url(#SVGID_2_)" fill="#7F818F" d="M68.523,34.098c2.828,2.398,3.791,4.262,4.501,7.129
		c0.708,2.866-0.635,8.174-0.635,8.174C64.366,44.144,69.671,40.728,68.523,34.098"/>
	<path clip-path="url(#SVGID_2_)" fill="#7F818F" d="M74.596,42.022c3.061,2.064,4.215,3.808,5.225,6.577
		c1.011,2.768,0.243,8.188,0.243,8.188C71.534,52.443,76.437,48.477,74.596,42.022"/>
	<path clip-path="url(#SVGID_2_)" fill="#7F818F" d="M63.314,25.505c2.562,2.719,3.325,4.687,3.726,7.625
		c0.402,2.938-1.501,8.076-1.501,8.076C58.114,35.085,63.757,32.25,63.314,25.505"/>
	<path clip-path="url(#SVGID_2_)" fill="#7F818F" d="M54.525,22.855c-4.896-6.074-0.237-7.915,0.749-13.429
		c1.68,2.728,1.992,4.524,1.839,7.042C56.959,18.985,54.525,22.855,54.525,22.855"/>
	<path clip-path="url(#SVGID_2_)" fill="#7F818F" d="M59.045,16.301c2.261,3.024,2.809,5.081,2.897,8.066
		c0.087,2.985-2.354,7.901-2.354,7.901C52.851,25.322,58.775,23.106,59.045,16.301"/>
	<path clip-path="url(#SVGID_2_)" fill="#7F818F" d="M50.861,15.744c0,0-1.278-0.165-3.054-1.936
		c-3.101-3.089-2.484-5.632-1.681-9.394C46.508,2.622,46.652,0,46.652,0s1.514,2.743,2.231,3.725
		c2.224,3.05,3.964,4.504,3.228,8.671C51.688,14.783,50.861,15.744,50.861,15.744"/>
	<path clip-path="url(#SVGID_2_)" fill="#7F818F" d="M210.344,75.351c-3.038-1.777-6.636-3.184-10.628-3.992
		c-3.988-0.812-8.306-1.244-12.802-1.211l-0.844,0.003l-0.4,0.002l-0.434,0.011l-0.87,0.023l-0.833,0.042
		c-1.106,0.047-2.255,0.145-3.389,0.264c-2.278,0.252-4.573,0.634-6.876,1.128c-4.61,0.972-9.232,2.406-13.865,3.915
		c-4.629,1.531-9.284,3.125-13.938,4.553c-4.654,1.421-9.316,2.649-13.895,3.541c-4.579,0.895-9.071,1.435-13.336,1.694
		c-4.267,0.276-8.311,0.168-12.018-0.066c-3.711-0.239-7.084-0.722-10.049-1.217c-2.367-0.394-4.463-0.858-6.28-1.284
		c-2.513-0.349-5.039-0.761-7.583-1.25c-1.961,1.634-6.103,4.578-9.07,4.88c-4.088,0.416-7.312-0.153-11.609-3.233
		c5.259,0.193,8.056-4.91,13.408-5.014c-4.509-3.234-2.863-8.536-6.393-12.228c4.552,0.54,6.822,1.82,9.515,4.315
		c1.943,1.8,3.707,6.285,4.633,8.65c10.758,2.624,21.28,3.918,31.888,3.934c1.094-0.085,2.202-0.18,3.328-0.294
		c3.865-0.396,7.892-1.074,12.006-1.995c-11.634-1.552-22.506-4.794-33.507-9.992c-1.855,0.867-5.67,2.307-8.038,1.933
		c-3.259-0.515-5.65-1.616-8.358-4.889c3.925,1.631,6.503-2.545,11.434-1.149c-3.48-3.854-0.266-7.807-2.471-10.808
		c3.425,1.353,4.928,2.811,6.511,5.301c1.142,1.797,1.597,5.643,1.834,7.668c10.977,5.864,21.914,9.633,33.775,11.664
		c4.315-1.006,8.714-2.284,13.156-3.737c4.556-1.475,9.153-3.147,13.835-4.701c4.677-1.564,9.447-3.028,14.293-4.025
		c2.418-0.511,4.861-0.881,7.287-1.123c1.22-0.11,2.416-0.243,3.643-0.279l0.913-0.095h0.871h0.434l0.467,0.085l0.882,0.09
		c2.348,0.074,4.661,0.234,6.918,0.531c2.255,0.29,4.457,0.69,6.564,1.256c4.21,1.116,8.091,2.781,11.238,4.998
		c3.155,2.198,5.607,4.819,7.254,7.434c1.68,2.6,2.694,5.093,3.326,7.179c0.648,2.085,0.954,3.763,1.138,4.909
		c0.099,0.57,0.14,1.011,0.182,1.307c0.038,0.297,0.057,0.449,0.057,0.449s-0.17-0.591-0.488-1.701
		c-0.332-1.099-0.866-2.704-1.713-4.653c-0.421-0.976-0.956-2.022-1.585-3.123c-0.622-1.108-1.389-2.243-2.281-3.386
		C215.785,79.388,213.382,77.14,210.344,75.351"/>
</g>
<g>
	<defs>
		<rect id="SVGID_3_" x="175.372" y="1.488" width="234.694" height="118.512"/>
	</defs>
	<clipPath id="SVGID_4_">
		<use xlink:href="#SVGID_3_"  overflow="visible"/>
	</clipPath>
	<path clip-path="url(#SVGID_4_)" fill="#7F818F" d="M394.842,51.359c-2.781,4.606-5.625,6.471-9.717,7.814
		c-4.091,1.342-11.119-0.611-11.119-0.611c3.827-4.415,7.172-6.432,12.95-6.742C389.97,51.656,391.886,52.984,394.842,51.359"/>
	<path clip-path="url(#SVGID_4_)" fill="#7F818F" d="M383.878,61.343c-3.118,1.297-4.858-0.223-7.861-0.38
		c-5.757-0.301-9.298,1.343-13.592,5.334c0,0,6.75,2.669,10.956,1.766C377.586,67.159,380.61,65.606,383.878,61.343"/>
	<path clip-path="url(#SVGID_4_)" fill="#7F818F" d="M396.843,41.514c-5.734,0.938-8.849,3.322-12.164,8.124
		c0,0,7.231,1.2,11.162-0.581c3.933-1.781,6.561-3.953,8.822-8.868C401.908,42.14,399.834,41.024,396.843,41.514"/>
	<path clip-path="url(#SVGID_4_)" fill="#7F818F" d="M359.031,77.528c-3.33,0.621-4.676-1.216-7.56-1.983
		c-5.541-1.471-9.363-0.582-14.456,2.444c0,0,5.983,3.973,10.284,3.947C351.603,81.91,354.899,81.011,359.031,77.528"/>
	<path clip-path="url(#SVGID_4_)" fill="#7F818F" d="M394.058,39.612c0,0,6.075,0.369,9.161-1.401
		c3.086-1.772,5.062-3.742,6.565-7.945C403.636,34.805,398.48,30.866,394.058,39.612"/>
	<path clip-path="url(#SVGID_4_)" fill="#7F818F" d="M360.729,75.669c4.276-0.464,7.453-1.694,11.171-5.583
		c-3.242,0.96-4.792-0.729-7.752-1.195c-5.678-0.896-9.376,0.373-14.093,3.9C350.056,72.791,356.455,76.133,360.729,75.669"/>
	<path clip-path="url(#SVGID_4_)" fill="#7F818F" d="M349.759,61.351c-4.685,1.016-6.905,2.512-9.426,5.247
		c-2.52,2.735-4.113,9.3-4.113,9.3C348.889,74.472,344.146,67.847,349.759,61.351"/>
	<path clip-path="url(#SVGID_4_)" fill="#7F818F" d="M361.17,64.418c12.072-3.974,5.918-9.498,9.957-16.986
		c-4.369,1.966-6.202,3.88-8.049,7.067C361.233,57.686,361.17,64.418,361.17,64.418"/>
	<path clip-path="url(#SVGID_4_)" fill="#7F818F" d="M352.045,61.134c-2.193,2.976-3.018,9.662-3.018,9.662
		c12.436-2.71,6.949-8.822,11.8-15.845C356.275,56.445,354.239,58.157,352.045,61.134"/>
	<path clip-path="url(#SVGID_4_)" fill="#7F818F" d="M380.556,38.847c-4.139,2.429-5.753,4.531-7.234,7.899
		c-1.479,3.369-0.778,10.076-0.778,10.076C384.121,51.616,377.365,46.726,380.556,38.847"/>
	<path clip-path="url(#SVGID_4_)" fill="#7F818F" d="M396.047,22.248c-3.028,2.717-4.017,4.755-4.658,7.797
		c-0.64,3.041,1.153,8.407,1.153,8.407C400.914,32.408,394.965,29.233,396.047,22.248"/>
	<path clip-path="url(#SVGID_4_)" fill="#7F818F" d="M389.002,29.241c-3.859,2.887-5.233,5.161-6.333,8.684
		c-1.099,3.522,0.355,10.134,0.355,10.134C393.973,41.64,386.697,37.456,389.002,29.241"/>
	<path clip-path="url(#SVGID_4_)" fill="#7F818F" d="M404.03,29.801c4.942-2.701,5.003-5.919,5.236-10.646
		c0.11-2.251,0.8-5.414,0.8-5.414s-2.824,2.787-4.055,3.73c-3.82,2.929-6.503,4.114-6.953,9.3c-0.257,2.971,0.472,4.373,0.472,4.373
		S401.199,31.349,404.03,29.801"/>
	<path clip-path="url(#SVGID_4_)" fill="#7F818F" d="M352.393,99.376c0,0,4.678,3.368,8.154,3.468
		c3.479,0.102,6.177-0.529,9.664-3.231C362.78,100.307,360.767,94.576,352.393,99.376"/>
	<path clip-path="url(#SVGID_4_)" fill="#7F818F" d="M341.353,102.046c0,0,4.252,3.828,7.681,4.288
		c3.43,0.461,6.17,0.116,9.917-2.197C351.509,104.034,350.21,98.128,341.353,102.046"/>
	<path clip-path="url(#SVGID_4_)" fill="#7F818F" d="M363.111,95.571c0,0,5.059,2.86,8.551,2.588c3.49-0.272,6.122-1.19,9.311-4.265
		C373.641,95.401,370.916,89.932,363.111,95.571"/>
	<path clip-path="url(#SVGID_4_)" fill="#7F818F" d="M318.737,103.937c0,0,3.279,4.6,6.515,5.745
		c3.237,1.145,5.983,1.364,10.14-0.131C328.166,107.92,328.272,101.896,318.737,103.937"/>
	<path clip-path="url(#SVGID_4_)" fill="#7F818F" d="M373.193,90.59c0,0,4.446,1.922,7.298,1.429
		c2.855-0.493,4.936-1.437,7.341-4.184C381.787,89.214,378.941,85.194,373.193,90.59"/>
	<path clip-path="url(#SVGID_4_)" fill="#7F818F" d="M330.099,103.568c0,0,3.784,4.24,7.133,5.049
		c3.348,0.81,6.105,0.746,10.077-1.164C339.937,106.574,339.344,100.572,330.099,103.568"/>
	<path clip-path="url(#SVGID_4_)" fill="#7F818F" d="M324.687,96.291c-2.721,1.369-5.913,5.863-5.913,5.863
		c9.7,2.434,8.639-3.704,14.581-7.249C329.531,94.4,327.411,94.921,324.687,96.291"/>
	<path clip-path="url(#SVGID_4_)" fill="#7F818F" d="M353.615,90.247c-3.876,0.292-5.833,1.233-8.187,3.124
		c-2.355,1.892-4.446,6.926-4.446,6.926C351.026,100.706,348.594,94.91,353.615,90.247"/>
	<path clip-path="url(#SVGID_4_)" fill="#7F818F" d="M343.602,93.099c-3.868-0.111-5.917,0.623-8.468,2.262
		c-2.549,1.639-5.201,6.431-5.201,6.431C339.848,103.228,338.101,97.224,343.602,93.099"/>
	<path clip-path="url(#SVGID_4_)" fill="#7F818F" d="M363.298,86.36c-3.846,0.703-5.694,1.841-7.828,3.967
		c-2.135,2.126-3.646,7.349-3.646,7.349C361.887,97.048,358.807,91.518,363.298,86.36"/>
	<path clip-path="url(#SVGID_4_)" fill="#7F818F" d="M379.962,78.101c-3.096,1.219-4.457,2.481-5.862,4.589
		c-1.405,2.109-1.69,6.62-1.69,6.62C380.289,87.257,377.438,83.096,379.962,78.101"/>
	<path clip-path="url(#SVGID_4_)" fill="#7F818F" d="M372.552,81.441c-3.772,1.121-5.496,2.455-7.391,4.799
		c-1.896,2.346-2.812,7.7-2.812,7.7C372.329,92.248,368.633,87.061,372.552,81.441"/>
	<path clip-path="url(#SVGID_4_)" fill="#7F818F" d="M380.849,82.312c-1.097,2.158-0.977,3.408-0.977,3.408s1.19,0.603,3.784,0.21
		c4.529-0.689,5.554-3.085,7.165-6.568c0.767-1.658,2.246-3.845,2.246-3.845s-2.966,1.326-4.176,1.7
		C385.134,78.38,382.761,78.543,380.849,82.312"/>
	<path clip-path="url(#SVGID_4_)" fill="#7F818F" d="M323.316,110.424c-4.341-0.957-3.994-5.797-9.05-7.525
		c5.319-1.083,4.992-6.109,8.704-7.243c-3.745-0.892-5.917-0.591-8.787,0.492c-2.069,0.782-4.804,3.604-6.241,5.095
		c-11.439-1.44-21.852-4.184-31.959-8.407c1.479,0.196,2.944,0.366,4.388,0.504c2.675,0.257,5.286,0.425,7.813,0.509
		c2.528,0.078,4.97,0.043,7.309-0.022c2.341-0.083,4.579-0.21,6.699-0.406c2.12-0.193,4.123-0.442,5.997-0.699
		c3.752-0.516,6.981-1.168,9.623-1.745c1.32-0.293,2.497-0.559,3.512-0.829c1.018-0.257,1.882-0.476,2.576-0.674
		c1.389-0.39,2.131-0.598,2.131-0.598s-0.762,0.13-2.188,0.376c-0.71,0.132-1.593,0.27-2.628,0.429
		c-1.032,0.166-2.224,0.336-3.558,0.522c-2.669,0.36-5.917,0.736-9.648,1.018c-1.866,0.128-3.852,0.243-5.947,0.294
		c-2.092,0.069-4.293,0.088-6.586,0.047c-2.292-0.056-4.677-0.146-7.137-0.351c-2.46-0.185-4.995-0.438-7.588-0.788
		c-2.594-0.347-5.244-0.797-7.935-1.334c-2.692-0.532-5.432-1.131-8.2-1.827c-0.161-0.041-0.324-0.085-0.485-0.125
		c-0.167-0.091-0.334-0.177-0.501-0.268c0.137,0.084,0.275,0.163,0.413,0.246c-5.348-1.362-10.829-3.025-16.378-4.748
		c-5.806-1.801-11.816-3.506-17.975-4.687c-6.159-1.164-12.467-1.908-18.762-1.743c-3.143,0.092-6.277,0.445-9.322,1.125
		c-3.044,0.669-5.996,1.7-8.687,3.128c-2.708,1.4-5.069,3.295-7.024,5.397c-0.964,1.065-1.826,2.184-2.59,3.337
		c-0.737,1.165-1.413,2.343-1.956,3.55c-0.291,0.596-0.518,1.21-0.773,1.807c-0.211,0.616-0.438,1.203-0.627,1.83
		c-0.391,1.32-0.557,2.595-0.594,3.864c-0.064,2.527,0.421,4.927,1.236,7.095c1.632,4.357,4.723,7.681,7.99,9.678
		c1.632,1.016,3.312,1.714,4.9,2.197c1.593,0.48,3.098,0.75,4.461,0.896c2.731,0.294,4.878,0.112,6.319-0.022
		c0.723-0.077,1.273-0.154,1.643-0.213c0.37-0.058,0.56-0.088,0.56-0.088s-0.192,0.012-0.566,0.035
		c-0.373,0.027-0.928,0.048-1.65,0.065c-1.44,0.023-3.572,0.005-6.193-0.469c-2.608-0.457-5.732-1.462-8.649-3.514
		c-1.453-1.02-2.827-2.316-3.991-3.868c-1.162-1.553-2.113-3.36-2.752-5.344c-0.635-1.979-0.949-4.149-0.781-6.334
		c0.084-1.085,0.297-2.197,0.654-3.207c0.189-0.537,0.447-1.09,0.668-1.639c0.259-0.538,0.489-1.093,0.778-1.624
		c0.541-1.081,1.197-2.115,1.897-3.132c0.726-1,1.532-1.96,2.416-2.863c1.792-1.786,3.923-3.318,6.319-4.507
		c4.793-2.413,10.559-3.374,16.41-3.449c5.876-0.111,11.903,0.635,17.836,1.806c5.945,1.166,11.818,2.726,17.572,4.479
		c1.434,0.43,2.893,0.884,4.35,1.303c1.444,0.422,2.891,0.818,4.334,1.207c2.886,0.777,5.755,1.506,8.604,2.148
		c2.847,0.641,5.667,1.214,8.451,1.667c0.599,0.096,1.196,0.186,1.79,0.274c10.527,5.172,21.441,8.667,33.57,10.776
		c1.054,1.767,3.43,5.126,5.677,6.193C316.301,110.99,319.01,111.487,323.316,110.424"/>
	<path clip-path="url(#SVGID_4_)" fill="#7F818F" d="M342.802,43.252c0,0,5.88,0.162,8.769-1.669
		c2.887-1.831,4.693-3.829,5.857-7.941C351.818,38.294,346.646,34.744,342.802,43.252"/>
	<path clip-path="url(#SVGID_4_)" fill="#7F818F" d="M335.482,51.493c0,0,5.819,0.772,8.89-0.741c3.071-1.512,5.085-3.3,6.7-7.242
		C344.963,47.521,340.257,43.438,335.482,51.493"/>
	<path clip-path="url(#SVGID_4_)" fill="#7F818F" d="M349.161,34.264c0,0,5.876-0.462,8.546-2.603
		c2.668-2.141,4.239-4.334,4.931-8.587C357.61,28.334,352.019,25.387,349.161,34.264"/>
	<path clip-path="url(#SVGID_4_)" fill="#7F818F" d="M318.277,65.474c0,0,5.505,1.933,8.841,1.083s5.704-2.184,8.159-5.686
		C328.398,63.524,324.767,58.57,318.277,65.474"/>
	<path clip-path="url(#SVGID_4_)" fill="#7F818F" d="M354.276,24.669c0,0,4.798-0.884,6.812-2.855
		c2.015-1.972,3.123-3.881,3.381-7.437C360.405,18.82,355.619,17.127,354.276,24.669"/>
	<path clip-path="url(#SVGID_4_)" fill="#7F818F" d="M343.66,52.61c-6.53,3.343-10.72-1.21-16.378,6.313
		c0,0,5.691,1.362,8.911,0.177C339.415,57.915,341.615,56.348,343.66,52.61"/>
	<path clip-path="url(#SVGID_4_)" fill="#7F818F" d="M324.574,50.094c-3.421,1.693-4.821,3.282-6.187,5.893
		c-1.366,2.611-1.181,8.017-1.181,8.017C326.592,60.644,321.931,56.24,324.574,50.094"/>
	<path clip-path="url(#SVGID_4_)" fill="#7F818F" d="M338.158,35.163c-2.968,2.369-3.978,4.209-4.723,7.04
		c-0.743,2.831,0.667,8.073,0.667,8.073C342.52,45.084,336.953,41.711,338.158,35.163"/>
	<path clip-path="url(#SVGID_4_)" fill="#7F818F" d="M331.785,42.988c-3.212,2.038-4.424,3.761-5.483,6.495
		c-1.061,2.734-0.255,8.087-0.255,8.087C334.998,53.28,329.852,49.364,331.785,42.988"/>
	<path clip-path="url(#SVGID_4_)" fill="#7F818F" d="M343.624,26.676c-2.689,2.686-3.489,4.629-3.91,7.531
		c-0.422,2.902,1.575,7.976,1.575,7.976C349.081,36.137,343.159,33.338,343.624,26.676"/>
	<path clip-path="url(#SVGID_4_)" fill="#7F818F" d="M352.847,24.059c5.138-5.998,0.248-7.817-0.786-13.262
		c-1.763,2.694-2.09,4.468-1.929,6.954C350.293,20.237,352.847,24.059,352.847,24.059"/>
	<path clip-path="url(#SVGID_4_)" fill="#7F818F" d="M348.104,17.587c-2.372,2.987-2.948,5.018-3.04,7.966
		c-0.092,2.948,2.47,7.803,2.47,7.803C354.604,26.496,348.388,24.307,348.104,17.587"/>
	<path clip-path="url(#SVGID_4_)" fill="#7F818F" d="M356.692,17.037c0,0,1.341-0.163,3.205-1.912
		c3.254-3.051,2.606-5.562,1.764-9.278c-0.401-1.77-0.552-4.359-0.552-4.359s-1.589,2.709-2.341,3.679
		c-2.333,3.012-4.16,4.449-3.388,8.563C355.824,16.087,356.692,17.037,356.692,17.037"/>
	<path clip-path="url(#SVGID_4_)" fill="#7F818F" d="M189.33,75.904c3.188-1.755,6.964-3.144,11.153-3.942
		c4.185-0.802,8.716-1.228,13.435-1.196l0.886,0.003l0.42,0.002l0.456,0.011l0.913,0.023l0.874,0.041
		c1.161,0.046,2.366,0.144,3.556,0.26c2.39,0.249,4.799,0.627,7.216,1.114c4.837,0.96,9.688,2.377,14.55,3.867
		c4.858,1.512,9.742,3.086,14.627,4.496c4.884,1.404,9.777,2.616,14.582,3.497c4.805,0.884,9.519,1.417,13.995,1.673
		c4.477,0.273,8.722,0.166,12.611-0.065c3.895-0.236,7.433-0.714,10.546-1.202c2.484-0.389,4.684-0.847,6.59-1.268
		c2.637-0.345,5.288-0.752,7.957-1.235c2.058,1.614,6.405,4.521,9.518,4.82c4.29,0.411,7.673-0.151,12.183-3.193
		c-5.518,0.191-8.454-4.849-14.071-4.951c4.731-3.194,3.004-8.431,6.709-12.076c-4.777,0.534-7.159,1.797-9.986,4.262
		c-2.039,1.778-3.89,6.207-4.861,8.543c-11.289,2.592-22.331,3.869-33.464,3.885c-1.148-0.084-2.311-0.178-3.492-0.29
		c-4.056-0.391-8.282-1.06-12.599-1.97c12.208-1.532,23.618-4.734,35.162-9.868c1.947,0.856,5.951,2.278,8.436,1.909
		c3.42-0.509,5.929-1.596,8.771-4.829c-4.118,1.611-6.824-2.513-11.998-1.134c3.652-3.806,0.279-7.71,2.593-10.674
		c-3.594,1.336-5.171,2.776-6.833,5.235c-1.198,1.774-1.676,5.573-1.924,7.573c-11.519,5.791-22.996,9.514-35.443,11.519
		c-4.528-0.994-9.145-2.256-13.806-3.69c-4.781-1.457-9.605-3.108-14.518-4.643c-4.908-1.545-9.913-2.99-14.999-3.975
		c-2.538-0.504-5.101-0.87-7.647-1.109c-1.28-0.109-2.535-0.24-3.823-0.276l-0.958-0.094h-0.914h-0.455l-0.49,0.084l-0.926,0.089
		c-2.464,0.073-4.892,0.231-7.259,0.524c-2.367,0.286-4.677,0.682-6.889,1.24c-4.418,1.102-8.491,2.746-11.794,4.936
		c-3.311,2.171-5.884,4.76-7.612,7.342c-1.763,2.567-2.827,5.03-3.491,7.09c-0.68,2.059-1.002,3.717-1.194,4.848
		c-0.104,0.563-0.147,0.998-0.191,1.29c-0.039,0.293-0.06,0.443-0.06,0.443s0.178-0.584,0.512-1.68
		c0.349-1.085,0.908-2.67,1.797-4.595c0.442-0.964,1.003-1.997,1.663-3.084c0.652-1.094,1.458-2.215,2.394-3.344
		C183.62,79.891,186.142,77.671,189.33,75.904"/>
</g>
</svg>
