<?xml version="1.0" encoding="utf-8"?>
<!-- Generator: Adobe Illustrator 17.0.0, SVG Export Plug-In . SVG Version: 6.00 Build 0)  -->
<!DOCTYPE svg PUBLIC "-//W3C//DTD SVG 1.1//EN" "http://www.w3.org/Graphics/SVG/1.1/DTD/svg11.dtd">
<svg version="1.1" id="Layer_1" xmlns="http://www.w3.org/2000/svg" xmlns:xlink="http://www.w3.org/1999/xlink" x="0px" y="0px"
	 width="16px" height="13px" viewBox="0 0 16 13" enable-background="new 0 0 16 13" xml:space="preserve">
<path fill="#EFEBE3" stroke="#000000" stroke-width="0.25" stroke-miterlimit="10" d="M15.446,1.739L14.05,3.164c0,0,0-0.13,0,0.237
	c0,0.26-0.041,0.508-0.101,0.75c-0.032,1.959-0.644,4.558-3.157,6.609c-4.943,4.033-10.239,0.474-10.239,0.474
	c4.189,0,4.189-1.425,4.189-1.425c-0.931,0-2.792-1.899-2.792-1.899c0.465,0.475,1.396,0,1.396,0
	C1.019,6.487,1.019,5.063,1.019,5.063c0.465,0.474,1.396,0,1.396,0C0.088,3.164,1.485,0.79,1.485,0.79C1.95,3.164,8,4.113,8,4.113
	l0.077-0.039C8.03,3.857,8,3.396,8,3.164c0-1.705,1.354-2.849,3.025-2.849c0.92,0,1.733,0.427,2.288,1.088l0.272-0.138l1.396-0.949
	L14.05,2.214L15.446,1.739z"/>
</svg>
