<?xml version="1.0" encoding="utf-8"?>
<!-- Generator: Adobe Illustrator 17.0.0, SVG Export Plug-In . SVG Version: 6.00 Build 0)  -->
<!DOCTYPE svg PUBLIC "-//W3C//DTD SVG 1.1//EN" "http://www.w3.org/Graphics/SVG/1.1/DTD/svg11.dtd">
<svg version="1.1" id="Layer_1" xmlns="http://www.w3.org/2000/svg" xmlns:xlink="http://www.w3.org/1999/xlink" x="0px" y="0px"
	 width="367px" height="60px" viewBox="0 0 367 60" enable-background="new 0 0 367 60" xml:space="preserve">
<path fill-rule="evenodd" clip-rule="evenodd" fill="none" stroke="#C2BEBA" stroke-miterlimit="10" d="M152.896,29H11v1h141.955
	C152.906,29.669,152.887,29.334,152.896,29z"/>
<path fill-rule="evenodd" clip-rule="evenodd" fill="none" stroke="#C2BEBA" stroke-miterlimit="10" d="M213.031,29
	c0.035,0.332,0.043,0.667,0.021,1H356v-1H213.031z"/>
<path fill-rule="evenodd" clip-rule="evenodd" fill="none" stroke="#C2BEBA" stroke-miterlimit="10" d="M183,0
	c16.569,0,30,13.431,30,30c0,16.569-13.432,30-30,30c-16.568,0-30-13.431-30-30C153,13.431,166.431,0,183,0z"/>
<path fill-rule="evenodd" clip-rule="evenodd" fill="none" d="M5.5,24c3.038,0,5.5,2.462,5.5,5.5c0,3.037-2.462,5.5-5.5,5.5
	C2.462,35,0,32.537,0,29.5C0,26.462,2.462,24,5.5,24z"/>
<path fill-rule="evenodd" clip-rule="evenodd" fill="none" d="M361.5,24c3.038,0,5.5,2.462,5.5,5.5c0,3.037-2.463,5.5-5.5,5.5
	c-3.037,0-5.5-2.462-5.5-5.5C356,26.462,358.462,24,361.5,24z"/>
</svg>
